<svg width="95" height="76" viewBox="0 0 95 76" fill="none" xmlns="http://www.w3.org/2000/svg">
<path d="M89.0186 72.4229L55.9443 72.4228C54.0983 72.4228 52.6016 70.9261 52.6016 69.0801L52.6016 34.6006C52.6016 34.0387 52.7433 33.4868 53.0117 32.9961L53.1348 32.7891L71.584 4.16992C72.1994 3.21538 73.2578 2.63867 74.3936 2.63867L78.1826 2.63867C80.5408 2.63867 82.1328 5.00261 81.3096 7.16308L81.2227 7.37109L73.9531 23.2734C71.3432 28.9827 75.5154 35.4785 81.793 35.4785L89.0186 35.4785C90.8646 35.4785 92.3613 36.9752 92.3613 38.8213L92.3613 69.0801C92.3613 70.9261 90.8646 72.4228 89.0186 72.4229Z" stroke="url(#paint0_linear_213_38)" stroke-width="5.27778"/>
<path d="M39.0557 72.4229L5.98145 72.4228C4.13546 72.4228 2.63869 70.9261 2.63867 69.0801L2.63868 34.6006C2.63868 34.0387 2.78043 33.4868 3.04883 32.9961L3.17188 32.7891L21.6211 4.16992C22.2366 3.21538 23.2949 2.63867 24.4307 2.63867L28.2197 2.63867C30.5779 2.63867 32.1699 5.00261 31.3467 7.16308L31.2598 7.37109L23.9902 23.2734C21.3803 28.9827 25.5526 35.4785 31.8301 35.4785L39.0557 35.4785C40.9017 35.4785 42.3984 36.9752 42.3984 38.8213L42.3984 69.0801C42.3984 70.9261 40.9017 72.4228 39.0557 72.4229Z" stroke="url(#paint1_linear_213_38)" stroke-width="5.27778"/>
<defs>
<linearGradient id="paint0_linear_213_38" x1="72.4815" y1="75.0615" x2="72.4815" y2="-6.30038e-05" gradientUnits="userSpaceOnUse">
<stop stop-color="#B4D2FF"/>
<stop offset="1" stop-color="#D0E3FF"/>
</linearGradient>
<linearGradient id="paint1_linear_213_38" x1="22.5186" y1="75.0615" x2="22.5186" y2="-6.30038e-05" gradientUnits="userSpaceOnUse">
<stop stop-color="#B4D2FF"/>
<stop offset="1" stop-color="#D0E3FF"/>
</linearGradient>
</defs>
</svg>
